<svg id="Layer_1" data-name="Layer 1" xmlns="http://www.w3.org/2000/svg" viewBox="0 0 20 20"><defs><style>.cls-1{fill:#fff;}.cls-2{fill:#eba18c;}.cls-3{fill:#e94f1b;}</style></defs><path class="cls-1" d="M0,.05C0,0,.11,0,.16,0H19.82C20,0,20,0,20,.18V19.82c0,.15,0,.18-.18.18H.18C0,20,0,20,0,19.82V.09c.08,0,.09.1.12.16,2,3.47,3.86,7,5.76,10.47a.33.33,0,0,0,.24.22c1.29.37,2.6.68,3.92,1a6.77,6.77,0,0,1,1,.23l.12.13,5.08,4.81a.22.22,0,0,1,.07.3,1.7,1.7,0,0,0-.1,1.09,1.9,1.9,0,0,0,2,1.5,1.9,1.9,0,1,0-1-3.59.15.15,0,0,1-.18,0L11.9,11.46a.37.37,0,0,1-.12-.23c-.29-1.58-.57-3.16-1-4.71a.43.43,0,0,0-.22-.3c-2.35-1.37-4.7-2.71-7-4.1L.16.12A.15.15,0,0,0,0,.05Z"/><path class="cls-2" d="M0,.05A.15.15,0,0,1,.16.12C.15.2.22.24.27.29c1,1,1.93,1.94,2.89,2.92C3.9,4,4.65,4.74,5.39,5.52S7,7.18,7.75,8c.94,1,1.9,1.94,2.85,2.9.22.23.44.46.68.67s.11.16,0,.27-.22.16-.25.3a6.77,6.77,0,0,0-1-.23c-1.32-.28-2.63-.59-3.92-1a.33.33,0,0,1-.24-.22C4,7.22,2.08,3.72.12.25.09.19.08.12,0,.09Z"/><path class="cls-3" d="M11,12.13c0-.14.16-.21.25-.3s.1-.17,0-.27-.46-.44-.68-.67C9.65,9.93,8.69,9,7.75,8,7,7.18,6.16,6.35,5.39,5.52S3.9,4,3.16,3.21C2.2,2.23,1.23,1.26.27.29.22.24.15.2.16.12l3.39,2c2.33,1.39,4.68,2.73,7,4.1a.43.43,0,0,1,.22.3c.41,1.55.69,3.13,1,4.71a.37.37,0,0,0,.12.23l5.15,4.88a.15.15,0,0,0,.18,0,1.89,1.89,0,1,1-1,2.09,1.7,1.7,0,0,1,.1-1.09.22.22,0,0,0-.07-.3l-5.08-4.81Zm8.43,5.94a1.41,1.41,0,1,0-1.41,1.42A1.39,1.39,0,0,0,19.46,18.07Z"/><path class="cls-1" d="M19.46,18.07a1.41,1.41,0,0,1-2.82,0,1.41,1.41,0,0,1,2.82,0Z"/></svg>